<?xml version="1.0" encoding="UTF-8"?>
<svg
  xmlns="http://www.w3.org/2000/svg"
  id="Layer_1"
  data-name="Layer 1"
  viewBox="0 0 24 24"
  fill="#34d399"
>
  <path
    d="m18,18c0,3.309-2.691,6-6,6s-6-2.691-6-6,2.691-6,6-6c.552,0,1,.447,1,1s-.448,1-1,1c-2.206,0-4,1.794-4,4s1.794,4,4,4,4-1.794,4-4c0-.553.448-1,1-1s1,.447,1,1Zm.364-3c.53,0,1.039-.211,1.414-.586l.966-.966c.535-.535.156-1.448-.6-1.448h-2.144v-2.144c0-.756-.914-1.135-1.448-.6l-.966.966c-.375.375-.586.884-.586,1.414v1.95l-2.482,2.482c-.165-.044-.339-.068-.518-.068-1.105,0-2,.895-2,2s.895,2,2,2,2-.895,2-2c0-.179-.024-.353-.068-.518l2.482-2.482h1.95Zm-3.226-7.158c.818-.816,2.036-1.059,3.103-.617.426.176.791.445,1.077.779h4.72l-.006-1.031c-.017-2.749-2.25-4.969-5-4.969h-1.031v-1C18,.452,17.552.004,17,.004s-1,.448-1,1v1h-8v-1C8,.452,7.552.004,7,.004s-1,.448-1,1v1h-1C2.239,2.004,0,4.242,0,7.004v1h14.976l.162-.162Zm-11.138,10.162c0-4.411,3.589-8,8-8H0v8.999c0,2.76,2.237,4.998,4.997,5h1.718c-1.664-1.466-2.715-3.612-2.715-5.999Zm20-8.004h-3.856c1.157,0,2.189.69,2.632,1.759s.2,2.287-.618,3.104l-.965.965c-.394.394-.856.696-1.36.895.103.604.168,1.069.168,1.281,0,2.387-1.051,4.533-2.715,6h2.283c2.489-.003,4.504-2.024,4.497-4.513l-.066-9.491Z"
  />
</svg>
